# AST/ASF file generated using VICON BodyLanguage
# -----------------------------------------------
:version 1.10
:name VICON
:units
  mass 1.0
  length 0.45
  angle deg
:documentation
   .ast/.asf automatically generated from VICON data using
   VICON BodyBuilder and BodyLanguage model FoxedUp or BRILLIANT.MOD
:root
   order TX TY TZ RX RY RZ
   axis XYZ
   position 0 0 0  
   orientation 0 0 0 
:bonedata
  begin
     id 1 
     name lhipjoint
     direction 0.625129 -0.738222 0.253461 
     length 2.5165 
     axis 0 0 0  XYZ
  end
  begin
     id 2 
     name lfemur
     direction 0.34202 -0.939693 0  
     length 7.54288  
     axis 0 0 20  XYZ
    dof rx ry rz
    limits (-160.0 20.0)
           (-70.0 70.0)
           (-60.0 70.0)
  end
  begin
     id 3 
     name ltibia
     direction 0.34202 -0.939693 0   
     length 7.71864   
     axis 0 0 20   XYZ
    dof rx
    limits (-10.0 170.0)
  end
  begin
     id 4 
     name lfoot
     direction 0.0772037 -0.212115 0.97419   
     length 2.18429   
     axis -90 7.62852e-016 20   XYZ
    dof rx rz
    limits (-45.0 90.0)
           (-70.0 20.0)
  end
  begin
     id 5 
     name ltoes
     direction 1.53513e-011 -4.21834e-011 1   
     length 1.09718   
     axis -90 7.62852e-016 20   XYZ
    dof rx
    limits (-90.0 20.0)
  end
  begin
     id 6 
     name rhipjoint
     direction -0.621946 -0.740623 0.254285   
     length 2.50835  
     axis 0 0 0  XYZ 
  end
  begin
     id 7 
     name rfemur
     direction -0.34202 -0.939693 0   
     length 7.43366   
     axis 0 0 -20   XYZ
    dof rx ry rz
    limits (-160.0 20.0)
           (-70.0 70.0)
           (-70.0 60.0)
  end
  begin
     id 8 
     name rtibia
     direction -0.34202 -0.939693 0   
     length 7.77122   
     axis 0 0 -20   XYZ
    dof rx
    limits (-10.0 170.0)
 end
 begin
     id 9 
     name rfoot
     direction -0.082694 -0.2272 0.970331   
     length 2.2293  
     axis -90 -7.62852e-016 -20   XYZ
    dof rx rz
    limits (-45.0 90.0)
           (-20.0 70.0)
  end
  begin
     id 10 
     name rtoes
     direction -1.53565e-011 -4.21695e-011 1   
     length 1.1178   
     axis -90 -7.62852e-016 -20   XYZ
    dof rx
    limits (-90.0 20.0)
  end
  begin
     id 11 
     name lowerback
     direction -0.000695208 0.988391 -0.151929   
     length 1.95077   
     axis 0 0 0   XYZ
    dof rx ry rz
    limits (-20.0 45.0)
           (-30.0 30.0)
           (-30.0 30.0)
  end
  begin
     id 12 
     name upperback
     direction -0.00268925 0.999885 -0.0149203   
     length 1.96246   
     axis 0 0 0   XYZ
    dof rx ry rz
    limits (-20.0 45.0)
           (-30.0 30.0)
           (-30.0 30.0)
  end
  begin
     id 13 
     name thorax
     direction -0.000848408 0.998481 0.0550912   
     length 2.00867   
     axis 0 0 0   XYZ
    dof rx ry rz
    limits (-20.0 45.0)
           (-30.0 30.0)
           (-30.0 30.0)
  end
  begin
     id 14 
     name lowerneck
     direction -0.00577709 0.998999 0.0443608   
     length 1.75762   
     axis 0 0 0   XYZ
    dof rx ry rz
    limits (-20.0 45.0)
           (-30.0 30.0)
           (-30.0 30.0)
  end
  begin
     id 15 
     name upperneck
     direction 0.0320945 0.999136 0.0264105   
     length 1.72601   
     axis 0 0 0   XYZ
    dof rx ry rz
    limits (-20.0 45.0)
           (-30.0 30.0)
           (-30.0 30.0)
  end
  begin
     id 16
     name head
     direction 0.0120552 0.999916 0.00480151  
     length 1.79973  
     axis 0 0 0   XYZ
    dof rx ry rz
    limits (-20.0 45.0)
           (-30.0 30.0)
           (-30.0 30.0)
  end
  begin
     id 17 
     name lclavicle
     direction 0.909 0.371533 -0.188897  
     length 3.47956  
     axis 0 0 0   XYZ
    dof ry rz
    limits (-20.0 10.0)
           (0.0 20.0)
  end
  begin
     id 18 
     name lhumerus
     direction 1 -4.48963e-011 -6.48352e-028   
     length 5.52302   
     axis 180 -30 -90   XYZ
    dof rx ry rz
    limits (-60.0 90.0)
           (-90.0 90.0)
           (-90.0 90.0)
  end
  begin
     id 19
     name lradius
     direction 1 -4.48968e-011 -4.78536e-027   
     length 3.58675   
     axis 180 -30 -90   XYZ
    dof rx
    limits (-10.0 170.0)
  end
  begin
     id 20
     name lwrist
     direction 1 -4.48942e-011 -9.9435e-027   
     length 1.79337   
     axis 8.54312e-015 90 90   XYZ
    dof ry
    limits (-180.0 0.0)
 end
  begin
     id 21 
     name lhand
     direction 1 -4.4904e-011 -1.9887e-026   
     length 0.536412   
     axis 1.26896e-014 90 90   XYZ
    dof rx rz
    limits (-90.0 90.0)
           (-45.0 45.0)
  end
  begin
     id 22 
     name lfingers
     direction 1 -4.48893e-011 -3.9774e-026   
     length 0.432469   
     axis 2.53792e-014 90 90   XYZ
    dof rx
    limits (0.0 90.0)
  end
  begin
     id 23
     name lthumb
     direction 0.707107 -6.34934e-011 0.707107   
     length 0.620942   
     axis -90 45 2.85299e-015   XYZ
    dof rx rz
    limits (-45.0 45.0)
           (-45.0 45.0)
  end
  begin
     id 24 
     name rclavicle
     direction -0.89595 0.416672 -0.153813   
     length 3.44099  
     axis 0 0 0   XYZ 
    dof ry rz
    limits (-10.0 20.0)
           (-20.0 0.0)
  end
  begin
     id 25 
     name rhumerus
     direction -1 -4.48952e-011 5.57804e-028  
     length 5.8478   
     axis 180 30 90   XYZ
    dof rx ry rz
    limits (-90.0 60.0)
           (-90.0 90.0)
           (-90.0 90.0)
  end
  begin
     id 26 
     name rradius
     direction -1 -4.48967e-011 -7.93646e-027   
     length 3.62717   
     axis 180 30 90   XYZ
    dof rx
    limits (-10.0 170.0)
  end
  begin
     id 27 
     name rwrist
     direction -1 -4.49008e-011 -9.9435e-027   
     length 1.81359   
     axis 8.54312e-015 -90 -90   XYZ
    dof ry
    limits (-180.0 0.0)
  end
  begin
     id 28
     name rhand
     direction -1 -4.48812e-011 -1.9887e-026   
     length 0.650516   
     axis 1.26896e-014 -90 -90   XYZ
    dof rx rz
    limits (-90.0 90.0)
           (-45.0 45.0)
  end
  begin
     id 29
     name rfingers
     direction -1 -4.49228e-011 -3.9774e-026   
     length 0.524463   
     axis 2.53792e-014 -90 -90   XYZ
    dof rx
    limits (0.0 90.0)
  end
  begin
     id 30
     name rthumb
     direction -0.707107 -6.34912e-011 0.707107   
     length 0.753027   
     axis -90 -45 -2.85299e-015   XYZ
    dof rx rz
    limits (-45.0 45.0)
           (-45.0 45.0)
  end
:hierarchy
  begin
    root lhipjoint rhipjoint lowerback
    lhipjoint lfemur
    lfemur ltibia
    ltibia lfoot
    lfoot ltoes
    rhipjoint rfemur
    rfemur rtibia
    rtibia rfoot
    rfoot rtoes
    lowerback upperback
    upperback thorax
    thorax lowerneck lclavicle rclavicle
    lowerneck upperneck
    upperneck head
    lclavicle lhumerus
    lhumerus lradius
    lradius lwrist
    lwrist lhand lthumb
    lhand lfingers
    rclavicle rhumerus
    rhumerus rradius
    rradius rwrist
    rwrist rhand rthumb
    rhand rfingers
  end

#!OML:ASF F:\VICON\USERDATA\INSTALL\rory3\rory3.ASF
:FULLY-SPECIFIED
:DEGREES
120
root -0.470459 18.2081 -5.20577 -2.30269 -32.1286 2.69639
lowerback 11.2211 0.0396461 -1.94586
upperback 1.81292 -0.288023 -1.67379
thorax -4.39658 -0.13478 -0.604914
lowerneck -3.24487 1.79886 0.54511
upperneck 9.06417 2.33463 0.198409
head 3.49551 1.17166 0.0631853
rclavicle -5.31252e-014 -7.95139e-015
rhumerus -30.4554 -3.89655 -83.969
rradius 30.3229
rwrist 15.2491
rhand -20.4318 16.9977
rfingers 7.12502
rthumb 5.92295 -12.8995
lclavicle -5.31252e-014 -7.95139e-015
lhumerus -19.0893 -2.14185 82.9383
lradius 13.9694
lwrist 1.25437
lhand -35.4732 22.1091
lfingers 7.12502
lthumb -8.60143 51.9139
rfemur -19.3259 -1.46836 17.3443
rtibia 65.6076
rfoot 1.26183 -12.603
rtoes 3.24651
lfemur -3.93479 -3.25443 -27.1132
ltibia 23.7774
lfoot -9.18938 1.23864
ltoes -24.2453
121
root -0.544838 18.1926 -5.07434 -2.32274 -31.6906 2.81165
lowerback 11.2234 -0.0755351 -1.90431
upperback 1.84976 -0.436491 -1.70545
thorax -4.35935 -0.209268 -0.639314
lowerneck -3.18848 1.82398 0.163543
upperneck 8.85711 2.35565 0.646459
head 3.40122 1.18723 0.27403
rclavicle 2.84759e-014 4.37326e-015
rhumerus -30.7213 -4.2262 -83.8237
rradius 29.7516
rwrist 14.9209
rhand -20.1489 15.7748
rfingers 7.12502
rthumb 6.19607 -14.1146
lclavicle 2.84759e-014 4.37326e-015
lhumerus -17.9745 -2.37971 82.7428
lradius 14.4008
lwrist 1.0725
lhand -35.6482 20.2076
lfingers 7.12502
lthumb -8.7703 50.0054
rfemur -20.2887 -1.54179 17.2537
rtibia 64.9668
rfoot 0.189406 -13.4398
rtoes 4.72923
lfemur -3.23 -3.32911 -27.2704
ltibia 23.7535
lfoot -9.46718 1.09898
ltoes -25.6093
122
root -0.617537 18.1725 -4.95171 -2.36856 -31.0616 3.09735
lowerback 11.261 -0.280685 -1.98539
upperback 1.84156 -0.725736 -1.82853
thorax -4.38878 -0.351518 -0.679215
lowerneck -3.21069 1.87959 0.107902
upperneck 8.78755 2.41856 0.830231
head 3.37799 1.22385 0.345585
rclavicle -5.46658e-015 -2.8625e-014
rhumerus -30.9825 -4.18922 -84.0731
rradius 29.3794
rwrist 13.9793
rhand -20.5095 13.5385
rfingers 7.12502
rthumb 5.84797 -16.3608
lclavicle -5.46658e-015 -2.8625e-014
lhumerus -17.0314 -2.54966 82.4766
lradius 15.0964
lwrist 1.12107
lhand -35.4285 18.7278
lfingers 7.12502
lthumb -8.55834 48.5343
rfemur -21.2644 -1.58097 16.9868
rtibia 64.2023
rfoot -0.764359 -14.3835
rtoes 6.09049
lfemur -2.52287 -3.47135 -27.5399
ltibia 23.6383
lfoot -9.65471 0.330655
ltoes -24.8481
123
root -0.690816 18.1718 -4.8165 -2.72137 -30.5741 4.03801
lowerback 11.2178 -0.361558 -2.6287
upperback 1.81708 -0.92272 -2.07897
thorax -4.38434 -0.4413 -0.549669
lowerneck -3.46561 1.71279 0.370039
upperneck 9.28812 2.21103 0.398059
head 3.6113 1.11239 0.157951
rclavicle -3.80176e-014 -1.90833e-014
rhumerus -31.3604 -4.08393 -84.2392
rradius 29.0727
rwrist 12.8856
rhand -21.1102 12.0665
rfingers 7.12502
rthumb 5.26793 -17.848
lclavicle -3.80176e-014 -1.90833e-014
lhumerus -16.1397 -2.77255 82.3069
lradius 15.9273
lwrist 1.2808
lhand -34.2849 20.5212
lfingers 7.12502
lthumb -7.45454 50.3699
rfemur -22.0943 -1.51101 15.9645
rtibia 63.1837
rfoot -2.09718 -14.6158
rtoes 7.41258
lfemur -2.38129 -3.82985 -28.447
ltibia 23.6369
lfoot -9.02124 -0.834856
ltoes -13.777
